<svg version="1.1" id="Layer_1" xmlns="http://www.w3.org/2000/svg" xmlns:xlink="http://www.w3.org/1999/xlink" x="0px" y="0px"
	 width="200px" height="91.333px" viewBox="0 0 200 91.333" enable-background="new 0 0 200 91.333" xml:space="preserve">
<path fill-rule="evenodd" clip-rule="evenodd" fill="#fff" d="M196.28,67.278c0-10.192-8.262-18.456-18.455-18.456
	c-1.52,0-2.99,0.205-4.402,0.552c0.162-0.914,0.264-1.85,0.264-2.812c0-8.634-7.002-15.635-15.633-15.635
	c-0.504,0-0.998,0.029-1.484,0.075C151.866,15.898,137.778,4.93,121.128,4.93c-18.111,0-39.124,14.042-42.783,35.856l0,0
	c-2.951-4.567-8.078-7.599-13.921-7.599c-8.885,0-16.115,6.994-16.538,15.771c-0.452-0.053-0.894-0.137-1.359-0.137
	c-1.611,0-3.14,0.336-4.532,0.934c-1.744-2.805-4.83-4.691-8.378-4.691c-5.459,0-9.886,4.426-9.886,9.886
	c0,1.324,0.271,2.585,0.743,3.739c-1.873-0.883-3.958-1.391-6.166-1.391c-8.011,0-14.506,6.495-14.506,14.507
	c0,6.366,4.108,11.762,9.814,13.716c1.334,0.724,2.842,1.174,4.469,1.174h161.25l0,0C189.43,86.696,196.28,77.696,196.28,67.278z"/>
</svg>
